<svg width="104" height="41" viewBox="0 0 104 41" fill="none" xmlns="http://www.w3.org/2000/svg">
<path d="M29.335 14.0809L11.335 14.0809" stroke="#898989" stroke-width="2" stroke-linecap="round"/>
<path d="M25.8271 20.0809H15.8271" stroke="#898989" stroke-width="2" stroke-linecap="round"/>
<path d="M22.8271 26.0809H18.8271" stroke="#898989" stroke-width="2" stroke-linecap="round"/>
<path d="M51.7386 21.2954H47.6366V25.7054H46.6286V15.6814H52.5366V16.6054H47.6366V20.3854H51.7386V21.2954ZM54.9162 17.0674C54.5242 17.0674 54.2022 16.7454 54.2022 16.3534C54.2022 15.9614 54.5242 15.6254 54.9162 15.6254C55.3082 15.6254 55.6442 15.9614 55.6442 16.3534C55.6442 16.7454 55.3082 17.0674 54.9162 17.0674ZM54.4402 25.7054V18.9294H55.4062V25.7054H54.4402ZM58.8487 25.7054H57.8827V15.4994H58.8487V25.7054ZM62.8772 25.7054H61.9252V19.7414H60.5672V18.9294H61.9252V16.7874H62.8772V18.9294H64.2352V19.7414H62.8772V25.7054ZM68.6867 25.8734C66.6987 25.8734 65.3687 24.4454 65.3687 22.3174C65.3687 20.2034 66.6847 18.7474 68.6167 18.7474C70.4507 18.7474 71.6967 20.0494 71.6967 21.9674V22.4434H66.3067C66.3767 24.0954 67.2447 25.0474 68.7007 25.0474C69.8067 25.0474 70.5207 24.5714 70.7727 23.6754H71.6967C71.3327 25.1034 70.2827 25.8734 68.6867 25.8734ZM68.6167 19.5734C67.3427 19.5734 66.5027 20.4134 66.3347 21.7434H70.7307C70.7307 20.4414 69.8907 19.5734 68.6167 19.5734ZM77.2032 18.8454V19.7134H76.6712C75.4252 19.7134 74.6272 20.5534 74.6272 21.8414V25.7054H73.6612V18.9294H74.5712L74.6412 19.9794C74.9072 19.2514 75.6212 18.7754 76.5732 18.7754C76.7832 18.7754 76.9652 18.7894 77.2032 18.8454ZM79.8734 20.4974C79.3974 20.4974 78.9914 20.0914 78.9914 19.6294C78.9914 19.1534 79.3974 18.7614 79.8734 18.7614C80.3494 18.7614 80.7554 19.1534 80.7554 19.6294C80.7554 20.0914 80.3494 20.4974 79.8734 20.4974ZM79.8734 25.8594C79.3974 25.8594 78.9914 25.4674 78.9914 25.0054C78.9914 24.5294 79.3974 24.1234 79.8734 24.1234C80.3494 24.1234 80.7554 24.5294 80.7554 25.0054C80.7554 25.4674 80.3494 25.8594 79.8734 25.8594ZM87.7914 25.7054H86.7694L90.4514 15.6814H91.6974L95.4214 25.7054H94.3714L93.3914 23.0454H88.7714L87.7914 25.7054ZM90.9414 17.0954L89.0794 22.1634H93.0694L91.1934 17.0954C91.1514 16.9554 91.0814 16.7874 91.0674 16.6894C91.0534 16.7734 90.9974 16.9554 90.9414 17.0954ZM98.0328 25.7054H97.0668V15.4994H98.0328V25.7054ZM101.515 25.7054H100.549V15.4994H101.515V25.7054Z" fill="#898989"/>
</svg>
