<svg width="44" height="11" viewBox="0 0 44 11" fill="none" xmlns="http://www.w3.org/2000/svg">
<path d="M1.00823 10.024H0.000226632V4.75645e-05H3.73823C5.76823 4.75645e-05 7.00023 1.12005 7.00023 2.89805C7.00023 4.34005 6.24423 5.34805 4.95623 5.69805L7.09823 10.024H5.97823L3.93423 5.86605H1.00823V10.024ZM1.00823 0.910048V4.95605H3.76623C5.15223 4.95605 5.96423 4.20005 5.96423 2.92605C5.96423 1.62405 5.11023 0.910048 3.73823 0.910048H1.00823ZM11.5151 10.192C9.52712 10.192 8.19712 8.76405 8.19712 6.63605C8.19712 4.52205 9.51312 3.06605 11.4451 3.06605C13.2791 3.06605 14.5251 4.36805 14.5251 6.28605V6.76205H9.13512C9.20512 8.41405 10.0731 9.36605 11.5291 9.36605C12.6351 9.36605 13.3491 8.89005 13.6011 7.99405H14.5251C14.1611 9.42205 13.1111 10.192 11.5151 10.192ZM11.4451 3.89205C10.1711 3.89205 9.33112 4.73205 9.16312 6.06205H13.5591C13.5591 4.76005 12.7191 3.89205 11.4451 3.89205ZM16.0136 6.65005C16.0136 4.52205 17.3156 3.06605 19.2896 3.06605C20.8576 3.06605 22.0056 3.97605 22.2716 5.37605H21.3056C21.0536 4.43805 20.2416 3.92005 19.3036 3.92005C17.9316 3.92005 16.9656 4.97005 16.9656 6.63605C16.9656 8.24605 17.8616 9.32405 19.2336 9.32405C20.2416 9.32405 21.0536 8.76405 21.3196 7.89605H22.2996C21.9776 9.28205 20.7736 10.192 19.2336 10.192C17.3156 10.192 16.0136 8.77805 16.0136 6.65005ZM27.025 10.192C25.037 10.192 23.707 8.76405 23.707 6.63605C23.707 4.52205 25.023 3.06605 26.955 3.06605C28.789 3.06605 30.035 4.36805 30.035 6.28605V6.76205H24.645C24.715 8.41405 25.583 9.36605 27.039 9.36605C28.145 9.36605 28.859 8.89005 29.111 7.99405H30.035C29.671 9.42205 28.621 10.192 27.025 10.192ZM26.955 3.89205C25.681 3.89205 24.841 4.73205 24.673 6.06205H29.069C29.069 4.76005 28.229 3.89205 26.955 3.89205ZM32.9655 10.024H31.9995V3.24805H32.8395L32.9795 4.42405C33.4275 3.55605 34.3235 3.06605 35.3035 3.06605C37.1655 3.06605 37.9355 4.17205 37.9355 5.88005V10.024H36.9695V6.09005C36.9695 4.50805 36.2555 3.94805 35.1355 3.94805C33.7495 3.94805 32.9655 4.95605 32.9655 6.48205V10.024ZM41.8349 10.024H40.8829V4.06005H39.5249V3.24805H40.8829V1.10605H41.8349V3.24805H43.1929V4.06005H41.8349V10.024Z" fill="#898989"/>
</svg>
