<svg width="23" height="20" viewBox="0 0 23 20" fill="none" xmlns="http://www.w3.org/2000/svg">
<path d="M13.1337 2.36542L11.2699 4.17137L9.40606 2.36542C7.45169 0.471748 4.31654 0.576304 2.49269 2.59598C0.722922 4.55575 0.479272 7.49116 2.08184 9.58987C2.27877 9.84777 2.47241 10.0948 2.65668 10.3208C3.82313 11.7518 6.36813 14.2507 7.64327 15.5918C8.58536 16.5826 9.43219 17.4089 10.0702 18.0108C10.7439 18.6465 11.7838 18.6326 12.4588 17.9983C13.6352 16.893 15.4391 15.1712 16.7098 13.8348C17.9849 12.4938 18.7166 11.7518 19.8831 10.3208C20.0674 10.0948 20.261 9.84777 20.4579 9.58987C22.0605 7.49116 21.8168 4.55575 20.0471 2.59598C18.2232 0.576304 15.0881 0.471746 13.1337 2.36542Z" stroke="#898989" stroke-width="2.02054" stroke-linecap="round" stroke-linejoin="round"/>
</svg>
