<svg width="21" height="23" viewBox="0 0 21 23" fill="none" xmlns="http://www.w3.org/2000/svg">
<g clip-path="url(#clip0_11002_603)">
<path d="M1.58398 3.67136C3.07004 3.67136 4.45945 4.40804 5.29331 5.6381L6.07944 6.79776L7.13914 8.36096M19.1258 16.1769H14.4926C13.2505 16.1769 12.0577 15.6905 11.1698 14.822L10.2962 13.9676M19.1258 16.1769L15.8404 19.5117M19.1258 16.1769L15.8404 12.8421" stroke="#898989" stroke-width="1.90085" stroke-linecap="round" stroke-linejoin="round"/>
<path d="M1.58398 18.0851C3.07373 18.0851 4.47036 17.3604 5.32809 16.1424L11.1353 7.89579C12.0254 6.63178 13.4747 5.87975 15.0207 5.87975H19.1258M19.1258 5.87975L15.8404 2.54492M19.1258 5.87975L15.8404 9.21458" stroke="#898989" stroke-width="1.90085" stroke-linecap="round" stroke-linejoin="round"/>
</g>
<defs>
<clipPath id="clip0_11002_603">
<rect width="20.5926" height="22.1766" fill="white"/>
</clipPath>
</defs>
</svg>
