<svg width="24" height="24" viewBox="0 0 24 24" fill="none" xmlns="http://www.w3.org/2000/svg">
<g clip-path="url(#clip0_11002_627)">
<path d="M4.3916 15.2441C1.44341 13.77 1.44341 9.56199 4.3916 8.08789L13.0352 3.7666C13.4783 3.54503 13.9997 3.86696 14 4.3623L14 18.9697C13.9997 19.4651 13.4783 19.787 13.0352 19.5654L4.3916 15.2441Z" stroke="#898989" stroke-width="2"/>
<path d="M18.333 16.666C19.1138 16.4531 19.8358 15.9806 20.4111 15.2922C21.2148 14.3305 21.6663 13.0261 21.6663 11.666C21.6663 10.3059 21.2148 9.00155 20.4111 8.03983C19.8358 7.35144 19.1138 6.87898 18.333 6.66602" stroke="#898989" stroke-width="1.66667" stroke-linecap="round"/>
<path d="M17.5003 11.1606C17.5003 10.9798 17.6523 10.8276 17.8192 10.8968C17.9203 10.9386 18.0122 11 18.0896 11.0774C18.167 11.1548 18.2283 11.2467 18.2702 11.3478C18.3121 11.4489 18.3337 11.5572 18.3337 11.6667C18.3337 11.7761 18.3121 11.8845 18.2702 11.9856C18.2283 12.0867 18.167 12.1785 18.0896 12.2559C18.0122 12.3333 17.9203 12.3947 17.8192 12.4366C17.6523 12.5057 17.5003 12.3535 17.5003 12.1728L17.5003 11.6667L17.5003 11.1606Z" fill="#898989" stroke="#898989" stroke-width="0.833333"/>
</g>
<defs>
<clipPath id="clip0_11002_627">
<rect width="23.3333" height="23.3333" fill="white"/>
</clipPath>
</defs>
</svg>
