<svg width="24" height="26" viewBox="0 0 24 26" fill="none" xmlns="http://www.w3.org/2000/svg">
<path d="M15.1531 6.73524C15.1531 8.5951 13.6454 10.1028 11.7855 10.1028C9.92568 10.1028 8.41797 8.5951 8.41797 6.73524C8.41797 4.87539 9.92568 3.36768 11.7855 3.36768C13.6454 3.36768 15.1531 4.87539 15.1531 6.73524Z" stroke="#898989" stroke-width="2.02054"/>
<path d="M8.41854 13.4705L4.86676 15.8383C3.92991 16.4629 3.36719 17.5143 3.36719 18.6403V20.3178C3.36719 21.1858 4.07079 21.8894 4.93872 21.8894H11.7861" stroke="#898989" stroke-width="2.02054" stroke-linecap="round" stroke-linejoin="round"/>
<path d="M19.3638 6.73535V14.3124M19.3638 14.3124V18.0754C19.3638 18.8245 18.8303 19.4779 18.0815 19.4543C16.8432 19.4153 15.1543 18.9712 15.1543 16.8381C15.1543 13.4705 19.3638 14.3124 19.3638 14.3124Z" stroke="#898989" stroke-width="1.68378" stroke-linecap="round" stroke-linejoin="round"/>
</svg>
