<svg width="35" height="26" viewBox="0 0 35 26" fill="none" xmlns="http://www.w3.org/2000/svg">
<path d="M26.573 6.73524C26.573 8.5951 25.0653 10.1028 23.2055 10.1028C21.3456 10.1028 19.8379 8.5951 19.8379 6.73524C19.8379 4.87539 21.3456 3.36768 23.2055 3.36768C25.0653 3.36768 26.573 4.87539 26.573 6.73524Z" stroke="#898989" stroke-width="2.02054"/>
<path d="M16.2847 15.8383L17.0345 15.3384C18.8616 14.1204 21.0083 13.4705 23.2041 13.4705C25.3999 13.4705 27.5466 14.1204 29.3736 15.3384L30.1234 15.8383C31.0603 16.4629 31.623 17.5143 31.623 18.6403V20.3178C31.623 21.1858 30.9194 21.8894 30.0515 21.8894H23.2041H16.3567C15.4888 21.8894 14.7852 21.1858 14.7852 20.3178V18.6403C14.7852 17.5143 15.3479 16.4629 16.2847 15.8383Z" stroke="#898989" stroke-width="2.02054" stroke-linecap="round" stroke-linejoin="round"/>
<path d="M15.1551 6.73524C15.1551 8.5951 13.6473 10.1028 11.7875 10.1028C9.92763 10.1028 8.41992 8.5951 8.41992 6.73524C8.41992 4.87539 9.92763 3.36768 11.7875 3.36768C13.6473 3.36768 15.1551 4.87539 15.1551 6.73524Z" stroke="#898989" stroke-width="2.02054"/>
<path d="M11.7861 13.4705C9.59028 13.4705 7.44359 14.1204 5.61655 15.3384L4.86676 15.8383C3.92991 16.4629 3.36719 17.5143 3.36719 18.6403V20.3178C3.36719 21.1858 4.07079 21.8894 4.93872 21.8894H10.9996" stroke="#898989" stroke-width="2.02054" stroke-linecap="round" stroke-linejoin="round"/>
</svg>
