<svg width="20" height="24" viewBox="0 0 20 24" fill="none" xmlns="http://www.w3.org/2000/svg">
<path d="M14.5442 4.26552C14.7529 4.70905 15.2817 4.89939 15.7252 4.69066C16.1688 4.48192 16.3591 3.95316 16.1504 3.50963L14.5442 4.26552ZM3.61519 7.98816C4.4913 7.84598 4.49137 7.84638 4.49143 7.84675C4.49144 7.84684 4.4915 7.84719 4.49153 7.84737C4.49159 7.84773 4.49163 7.84799 4.49165 7.84814C4.4917 7.84844 4.49168 7.84833 4.4916 7.84781C4.49144 7.84676 4.49103 7.84408 4.49041 7.83981C4.48916 7.83128 4.48707 7.81644 4.48442 7.79571C4.47911 7.75421 4.47156 7.68935 4.46402 7.60449C4.44891 7.43439 4.43402 7.18627 4.43672 6.88671C4.44219 6.28146 4.51931 5.49832 4.7887 4.73233C5.05569 3.97315 5.50306 3.25206 6.24306 2.71568C6.98083 2.18093 8.08467 1.77515 9.76184 1.77515V0C7.78951 0 6.30028 0.481792 5.20126 1.27839C4.10449 2.07338 3.47139 3.12744 3.11409 4.1434C2.75919 5.15256 2.66821 6.14457 2.66165 6.87067C2.65834 7.2368 2.67645 7.5434 2.69584 7.76162C2.70556 7.87092 2.71564 7.95861 2.72365 8.02113C2.72765 8.0524 2.73114 8.07743 2.73381 8.09577C2.73515 8.10494 2.73628 8.11244 2.73717 8.11822C2.73762 8.12111 2.738 8.12357 2.73832 8.12559C2.73848 8.1266 2.73862 8.1275 2.73875 8.1283C2.73882 8.12869 2.7389 8.1292 2.73893 8.1294C2.73901 8.12989 2.73908 8.13034 3.61519 7.98816ZM9.76184 1.77515C11.2667 1.77515 12.3085 2.10211 13.0367 2.55229C13.7628 3.00119 14.2349 3.60832 14.5442 4.26552L16.1504 3.50963C15.7189 2.59289 15.0338 1.70001 13.9702 1.0424C12.9085 0.386066 11.528 0 9.76184 0V1.77515Z" fill="#898989"/>
<path d="M15.9755 8.43188H3.54944C2.07886 8.43188 0.886719 9.62403 0.886719 11.0946V20.4141C0.886719 21.8847 2.07886 23.0768 3.54944 23.0768H15.9755C17.446 23.0768 18.6382 21.8847 18.6382 20.4141V11.0946C18.6382 9.62403 17.446 8.43188 15.9755 8.43188Z" stroke="#898989" stroke-width="1.77515"/>
<circle cx="9.76233" cy="15.9763" r="2.66272" stroke="#898989" stroke-width="1.77515"/>
</svg>
