<svg width="23" height="20" viewBox="0 0 23 20" fill="none" xmlns="http://www.w3.org/2000/svg">
<path d="M13.1327 2.36517L11.2689 4.17112L9.40508 2.36518C7.45071 0.471504 4.31557 0.57606 2.49171 2.59574C0.721946 4.55551 0.478296 7.49092 2.08086 9.58963C2.27779 9.84753 2.47143 10.0945 2.65571 10.3206C3.82215 11.7515 6.36716 14.2505 7.6423 15.5916C8.58439 16.5824 9.43122 17.4087 10.0692 18.0106C10.7429 18.6462 11.7829 18.6323 12.4579 17.9981C13.6342 16.8927 15.4381 15.171 16.7088 13.8346C17.984 12.4935 18.7157 11.7515 19.8821 10.3206C20.0664 10.0945 20.26 9.84753 20.457 9.58963C22.0595 7.49092 21.8159 4.55551 20.0461 2.59574C18.2222 0.57606 15.0871 0.471502 13.1327 2.36517Z" stroke="#898989" stroke-width="2.02054" stroke-linecap="round" stroke-linejoin="round"/>
</svg>
